<?xml version="1.0" encoding="UTF-8"?>
<svg width="116px" height="79px" viewBox="0 0 116 79" version="1.1" xmlns="http://www.w3.org/2000/svg" xmlns:xlink="http://www.w3.org/1999/xlink">
    <title>Group 15</title>
    <defs>
        <polygon id="path-1" points="0.913433405 0.0446528195 41.193147 0.0446528195 41.193147 16.6068296 0.913433405 16.6068296"></polygon>
        <polygon id="path-3" points="0 0.934660088 95.1362807 0.934660088 95.1362807 17.6839743 0 17.6839743"></polygon>
    </defs>
    <g id="Page-1" stroke="none" stroke-width="1" fill="none" fill-rule="evenodd">
        <g id="startseite1" transform="translate(-387.000000, -14.000000)">
            <g id="Group-16" transform="translate(3.000000, 0.000000)">
                <g id="Group-15" transform="translate(384.000000, 14.000000)">
                    <polygon id="Fill-1" fill="#53F20E" points="91 78 95 78 95 74 91 74"></polygon>
                    <g id="Group-14">
                        <g id="Group-4" transform="translate(50.182285, 61.452694)">
                            <mask id="mask-2" fill="white">
                                <use xlink:href="#path-1"></use>
                            </mask>
                            <g id="Clip-3"></g>
                            <path d="M6.099962,0.0446528195 L0.913433405,16.4207192 L4.97771867,16.4207192 L5.91326339,13.2141162 L9.97754865,13.2141162 L10.9130934,16.4207192 L14.9773786,16.4207192 L9.79085004,0.0446528195 L6.099962,0.0446528195 Z M6.68467745,9.86988183 L7.89924427,5.12057607 L7.99156776,5.12057607 L9.20818622,9.86988183 L6.68467745,9.86988183 Z M22.1970757,16.6076513 C26.238793,16.6076513 28.296581,14.5020983 28.296581,10.8764388 L28.296581,0.0446528195 L24.4169427,0.0446528195 L24.4169427,10.6648565 C24.4169427,12.2096133 23.9491704,13.2141162 22.1970757,13.2141162 C20.444981,13.2141162 19.9772086,12.2096133 19.9772086,10.6648565 L19.9772086,0.0446528195 L16.099622,0.0446528195 L16.099622,10.8764388 C16.099622,14.5020983 18.1553584,16.6076513 22.1970757,16.6076513 L22.1970757,16.6076513 Z M35.0485057,16.4207192 L35.0485057,10.1266566 L40.6556191,10.1266566 L40.6556191,6.80501842 L35.0485057,6.80501842 L35.0485057,3.36629098 L41.193147,3.36629098 L41.193147,0.0446528195 L31.1688674,0.0446528195 L31.1688674,16.4207192 L35.0485057,16.4207192 Z" id="Fill-2" fill="#454545" mask="url(#mask-2)"></path>
                        </g>
                        <path d="M8.20017253,57.7469978 L8.20017253,51.4549893 L13.8072859,51.4549893 L13.8072859,48.1333512 L8.20017253,48.1333512 L8.20017253,44.6946237 L14.3448138,44.6946237 L14.3448138,41.3709314 L4.32258588,41.3709314 L4.32258588,57.7469978 L8.20017253,57.7469978 Z M22.5677595,57.9339298 C26.7284715,57.9339298 28.7370203,55.5716021 28.7370203,51.9459426 L28.7370203,47.1966369 C28.7370203,43.5935736 26.7284715,41.1839993 22.5677595,41.1839993 C18.3865311,41.1839993 16.3533627,43.5935736 16.3533627,47.1966369 L16.3533627,51.9459426 C16.3533627,55.5716021 18.3865311,57.9339298 22.5677595,57.9339298 L22.5677595,57.9339298 Z M22.5677595,54.4952023 C20.8628523,54.4952023 20.2555689,53.5358919 20.2555689,51.6891679 L20.2555689,47.4082193 C20.2555689,45.6066876 20.8628523,44.6473772 22.5677595,44.6473772 C24.2747182,44.6473772 24.8348141,45.6066876 24.8348141,47.4082193 L24.8348141,51.6891679 C24.8348141,53.5358919 24.2747182,54.4952023 22.5677595,54.4952023 L22.5677595,54.4952023 Z M31.1907736,41.3709314 L31.1907736,57.7469978 L35.0457923,57.7469978 L35.0457923,52.1328747 L36.5168132,52.1328747 L39.2967762,57.7469978 L43.5969992,57.7469978 L40.0907582,51.4775855 C41.3997001,50.8921391 42.73121,49.5363684 42.73121,46.7755263 C42.73121,42.8930921 40.3943999,41.3709314 36.5168132,41.3709314 L31.1907736,41.3709314 Z M35.0457923,44.6946237 L36.3526826,44.6946237 C37.9652662,44.6946237 38.8290038,45.1383305 38.8290038,46.7755263 C38.8290038,48.2956328 38.0124538,48.8112365 36.5865688,48.8112365 L35.0457923,48.8112365 L35.0457923,44.6946237 Z M49.7395889,57.9339298 C53.9700564,57.9339298 55.8390942,55.9701165 55.8390942,52.81076 C55.8390942,46.8926156 48.2459999,48.1785435 48.2459999,45.8162158 C48.2459999,45.0438374 48.8286638,44.5528841 50.0904181,44.5528841 C51.282417,44.5528841 52.4497963,44.9513985 53.7587382,45.7237769 L55.3713219,42.9156883 C54.1095675,42.0734671 52.3102852,41.1839993 49.9283391,41.1839993 C46.3769621,41.1839993 44.4607368,42.8930921 44.4607368,45.9579555 C44.4607368,51.7343602 52.0066435,50.0047255 52.0066435,52.9504455 C52.0066435,53.7700705 51.3767921,54.5177985 49.856532,54.5177985 C48.5947776,54.5177985 47.2181317,54.1213383 45.3019064,53.2318706 L43.9703965,56.1570485 C45.2772868,56.9520232 47.2406997,57.9339298 49.7395889,57.9339298 L49.7395889,57.9339298 Z M56.7253997,41.3709314 L56.7253997,44.9267481 L60.9784353,44.9267481 L60.9784353,57.7469978 L64.8560219,57.7469978 L64.8560219,44.9267481 L69.0864895,44.9267481 L69.0864895,41.3709314 L56.7253997,41.3709314 Z M81.4455275,57.7469978 L81.4455275,54.4253596 L75.3008863,54.4253596 L75.3008863,51.0564749 L80.9079997,51.0564749 L80.9079997,47.7348367 L75.3008863,47.7348367 L75.3008863,44.6946237 L81.4455275,44.6946237 L81.4455275,41.3709314 L71.421248,41.3709314 L71.421248,57.7469978 L81.4455275,57.7469978 Z M83.4315084,41.3709314 L83.4315084,44.9267481 L87.6824923,44.9267481 L87.6824923,57.7469978 L91.5621306,57.7469978 L91.5621306,44.9267481 L95.7905465,44.9267481 L95.7905465,41.3709314 L83.4315084,41.3709314 Z" id="Fill-5" fill="#454545"></path>
                        <path d="M44.7414002,21.2463644 L40.8638136,21.2463644 L40.8638136,37.6224309 L50.8634735,37.6224309 L50.8634735,34.0666141 L44.7414002,34.0666141 L44.7414002,21.2463644 Z M56.9137397,21.2463644 L51.7272111,37.6224309 L55.7914963,37.6224309 L56.727041,34.4158278 L60.7913263,34.4158278 L61.726871,37.6224309 L65.7911563,37.6224309 L60.6046277,21.2463644 L56.9137397,21.2463644 Z M57.4984551,31.0715935 L58.7130219,26.3222877 L58.8053454,26.3222877 L60.0219639,31.0715935 L57.4984551,31.0715935 Z M80.3003059,21.2463644 L76.5622303,21.2463644 L76.5622303,29.9479471 L76.4699068,29.9479471 L70.9776849,21.2463644 L67.4981151,21.2463644 L67.4981151,37.6224309 L71.2361907,37.6224309 L71.2361907,28.639423 L71.3285142,28.639423 L76.8904916,37.6224309 L80.3003059,37.6224309 L80.3003059,21.2463644 Z M83.0577009,21.2463644 L83.0577009,37.6224309 L89.3418532,37.6224309 C93.1045484,37.6224309 95.6731931,34.6027598 95.6731931,29.3871511 C95.6731931,23.7257814 93.1045484,21.2463644 88.8515129,21.2463644 L83.0577009,21.2463644 Z M86.9127196,24.5680026 L88.5478712,24.5680026 C91.1185675,24.5680026 91.7258509,27.000173 91.7258509,29.3173084 C91.7258509,31.9138146 91.1185675,34.2987385 88.5478712,34.2987385 L86.9127196,34.2987385 L86.9127196,24.5680026 Z" id="Fill-7" fill="#454545"></path>
                        <g id="Group-11">
                            <mask id="mask-4" fill="white">
                                <use xlink:href="#path-3"></use>
                            </mask>
                            <g id="Clip-10"></g>
                            <path d="M0,1.12097585 L0,17.4970423 L6.28415233,17.4970423 C10.0468475,17.4970423 12.6154922,14.4773712 12.6154922,9.2617625 C12.6154922,3.60039283 10.0468475,1.12097585 5.79381201,1.12097585 L0,1.12097585 Z M3.85501868,4.442614 L5.4901703,4.442614 C8.06086664,4.442614 8.66815005,6.87478443 8.66815005,9.19191977 C8.66815005,11.788426 8.06086664,14.1733499 5.4901703,14.1733499 L3.85501868,14.1733499 L3.85501868,4.442614 Z M25.0914734,17.4970423 L25.0914734,14.1733499 L18.9468321,14.1733499 L18.9468321,10.8065194 L24.5559971,10.8065194 L24.5559971,7.48488123 L18.9468321,7.48488123 L18.9468321,4.442614 L25.0914734,4.442614 L25.0914734,1.12097585 L15.0692455,1.12097585 L15.0692455,17.4970423 L25.0914734,17.4970423 Z M33.829379,17.6839743 C37.8731479,17.6839743 39.9288843,15.5784213 39.9288843,11.9527619 L39.9288843,1.12097585 L36.049246,1.12097585 L36.049246,11.7411795 C36.049246,13.2859364 35.5835253,14.2904392 33.829379,14.2904392 C32.0772843,14.2904392 31.6115635,13.2859364 31.6115635,11.7411795 L31.6115635,1.12097585 L27.7319253,1.12097585 L27.7319253,11.9527619 C27.7319253,15.5784213 29.7876617,17.6839743 33.829379,17.6839743 L33.829379,17.6839743 Z M42.0318083,1.12097585 L42.0318083,4.67679258 L46.2827922,4.67679258 L46.2827922,17.4970423 L50.1624305,17.4970423 L50.1624305,4.67679258 L54.3908464,4.67679258 L54.3908464,1.12097585 L42.0318083,1.12097585 Z M61.3992252,17.6839743 C65.6276411,17.6839743 67.4966789,15.7181068 67.4966789,12.5608045 C67.4966789,6.64266006 59.9035847,7.928588 59.9035847,5.56626031 C59.9035847,4.79388186 60.4883001,4.30292854 61.7500545,4.30292854 C62.9420533,4.30292854 64.1094326,4.69938875 65.4183746,5.4717672 L67.0309582,2.66573274 C65.7692038,1.82351156 63.9699216,0.934043828 61.5859238,0.934043828 C58.0345469,0.934043828 56.1183215,2.64108236 56.1183215,5.70594577 C56.1183215,11.4844047 63.6662798,9.75271582 63.6662798,12.7004899 C63.6662798,13.5201149 63.0343768,14.267843 61.5161683,14.267843 C60.2544139,14.267843 58.8757164,13.8693286 56.9594911,12.9819151 L55.6279812,15.9050388 C56.9369231,16.7000134 58.900336,17.6839743 61.3992252,17.6839743 L61.3992252,17.6839743 Z M68.9697515,11.6713367 C68.9697515,15.2744 71.0480559,17.6839743 75.2313359,17.6839743 C78.6411502,17.6839743 80.0896032,16.1392174 80.9779603,14.080911 L77.9169237,12.5135579 C77.451203,13.5899577 76.6797889,14.2205965 75.370847,14.2205965 C73.5961843,14.2205965 72.8945257,12.9819151 72.8945257,11.4597544 L72.8945257,7.15620956 C72.8945257,5.63610304 73.5715647,4.39536745 75.348279,4.39536745 C76.6797889,4.39536745 77.3793958,5.07530699 77.8246002,6.07980981 L80.9082048,4.55970329 C79.9275242,2.5013969 78.384696,0.934043828 75.1841483,0.934043828 C71.0008683,0.934043828 68.9697515,3.34361808 68.9697515,6.94668136 L68.9697515,11.6713367 Z M91.2586941,17.4970423 L95.1362807,17.4970423 L95.1362807,1.12097585 L91.2586941,1.12097585 L91.2586941,7.43763468 L86.6794489,7.43763468 L86.6794489,1.12097585 L82.7998106,1.12097585 L82.7998106,17.4970423 L86.6794489,17.4970423 L86.6794489,10.781869 L91.2586941,10.781869 L91.2586941,17.4970423 Z" id="Fill-9" fill="#454545" mask="url(#mask-4)"></path>
                        </g>
                        <path d="M115.537721,7.82444016 C115.537721,4.02417387 112.450013,0.934660088 108.656543,0.934660088 C104.861022,0.934660088 101.773314,4.02417387 101.773314,7.82444016 C101.773314,11.3905279 104.495831,14.3321394 107.967194,14.6792989 L107.967194,17.4709539 L109.34384,17.4709539 L109.34384,14.6792989 C112.817255,14.3321394 115.537721,11.3905279 115.537721,7.82444016 M109.34384,13.2886068 L109.34384,12.2450742 L111.896072,9.68965194 L110.921546,8.71596209 L108.713989,10.9262791 L106.440779,8.08326911 L105.365724,8.94397807 L107.967194,12.1998819 L107.967194,13.2886068 C105.256987,12.94761 103.14996,10.6304746 103.14996,7.82444016 C103.14996,4.78422713 105.620126,2.31302694 108.656543,2.31302694 C111.690909,2.31302694 114.161075,4.78422713 114.161075,7.82444016 C114.161075,10.6304746 112.056099,12.94761 109.34384,13.2886068" id="Fill-12" fill="#53F20E"></path>
                    </g>
                </g>
            </g>
        </g>
    </g>
</svg>