<svg xmlns="http://www.w3.org/2000/svg" viewBox="0 0 230 51">
  <g fill="none" fill-rule="evenodd">
    <path fill="#286AA6" d="M25.08 3.47a21.75 21.75 0 1 0 0 43.5 21.75 21.75 0 0 0 0-43.5"/>
    <path fill="#84BF41" d="M25.03 46.96a21.7 21.7 0 1 1 0-43.4 21.7 21.7 0 0 1 0 43.4zm0-46.74a25.03 25.03 0 1 0 0 50.06 25.03 25.03 0 0 0 0-50.06z"/>
    <path fill="#FFFFFE" fill-rule="nonzero" d="M16.7 21.78l.05-.14.1-.3a9.06 9.06 0 0 1 1-1.83 11.06 11.06 0 0 1 2.45-2.62c.52-.43 1.1-.87 1.79-1.29a7.8 7.8 0 0 1 2.63-1.06c.26-.06.64-.08.85-.1a11.4 11.4 0 0 1 2.37.17c.58.13 1.22.3 1.96.76a3.27 3.27 0 0 1 1.54 2.93c-.02.46-.15.93-.34 1.36-.2.42-.45.8-.74 1.14-.58.7-1.28 1.27-2.1 1.84-.81.56-1.73 1.1-2.76 1.63a37.56 37.56 0 0 1-3.39 1.52c-.22.08-.39.19-.44.21a2.04 2.04 0 0 0-.34-.24l-.09-.05.12-.02.1-.01.18-.05c.05 0 .06.03.07.06a6.1 6.1 0 0 0 .74.93c.94.95 2.16 1.94 3.32 3.1 1.2 1.17 2.2 2.52 3.31 3.66a7.34 7.34 0 0 0 1.87 1.4c.7.36 1.48.56 2.31.6l.2.01.12.1-.3-.1a6.1 6.1 0 0 0 3.19-.67 5.45 5.45 0 0 0 2.85-4.15c.08-.6.09-1.2 0-1.82a5.11 5.11 0 0 0-1.81-3.17c-.5-.4-1.06-.72-1.65-.96a8.46 8.46 0 0 0-1.86-.45l-.48-.03-.23-.02h-.25l-.49.01-.48.06a6.6 6.6 0 0 0-1.87.57 12.41 12.41 0 0 0-3.08 2.21c-.91.84-1.74 1.7-2.6 2.47-1.21 1.2-2.48 2.3-3.75 3.24-.64.47-1.3.9-1.95 1.28a8.9 8.9 0 0 1-1.97.86 3.52 3.52 0 0 1-1.16.15l-.25-.02a6.35 6.35 0 0 1-2.34-.62 5.56 5.56 0 0 1-2.52-2.44 4.7 4.7 0 0 1-.37-3.1c.22-1 .76-1.84 1.4-2.51a6.98 6.98 0 0 1 2.13-1.46c.74-.32 1.45-.5 2.09-.62-.59.18-1.24.4-1.9.74-.67.35-1.35.82-1.92 1.44A4.52 4.52 0 0 0 10.69 30c.03.46.17.91.37 1.34a4.6 4.6 0 0 0 2.13 2.13c.5.25 1.03.43 1.6.52.29.03.58.07.87.06h.35c.11-.03.22-.04.35-.08.5-.13 1.12-.41 1.73-.77.61-.35 1.24-.8 1.86-1.27a30.52 30.52 0 0 0 3.62-3.3l.05-.05c.8-.76 1.57-1.59 2.46-2.45.43-.43.91-.87 1.43-1.3.53-.42 1.1-.83 1.75-1.19a8.54 8.54 0 0 1 2.14-.82c.19-.06.39-.08.58-.1.2-.03.39-.08.58-.08l.59-.02c.2-.01.37 0 .55.01.73.03 1.48.15 2.22.37a7.56 7.56 0 0 1 3.92 2.69c.49.68.84 1.45 1.05 2.24.21.79.26 1.59.22 2.36-.01.4-.09.78-.15 1.17-.1.38-.19.77-.34 1.14a7.24 7.24 0 0 1-5.1 4.53c-.74.2-1.5.26-2.24.26h-.52l-.38-.3.88.29a8.46 8.46 0 0 1-2.02-.3 7.29 7.29 0 0 1-1.9-.8 13 13 0 0 1-2.8-2.45c-.77-.84-1.46-1.63-2.2-2.34-.76-.72-1.58-1.4-2.4-2.11-.42-.36-.84-.72-1.26-1.13-.21-.2-.42-.43-.63-.68-.2-.25-.42-.53-.6-.92l-.11-.32a3.24 3.24 0 0 1-.08-.38c0-.14-.02-.28 0-.43.02-.14.04-.29.1-.42.2-.56.55-.89.85-1.11.31-.24.6-.37.88-.5l.7-.3a28.48 28.48 0 0 0 5.07-2.87c.36-.27.7-.56 1-.86.3-.3.56-.61.7-.9.15-.3.15-.49.09-.63-.05-.14-.3-.34-.61-.48a6.75 6.75 0 0 0-3.39-.37c-.35.07-.71.19-1.07.32-.7.28-1.4.64-2.05 1l-.98.55-.89.56a22.15 22.15 0 0 0-3.05 2.44c.06-.08.07-.12.08-.17zM17.79 14.8l1.01.26-.24-.06.33.09c-1.05-.4-1.81-1.4-1.44-2.55.38-1.16 1.63-1.6 2.75-1.43l-1.02-.26.25.07-.33-.1c.88.34 1.47 1 1.53 1.96 0 .16 1.34.22 1.35.35-.1-1.66-1.73-2.11-3.1-2.37-1.8-.32-3.82 1.5-2.44 3.23.72.9 2.62 1.35 3.74 1.19a2.05 2.05 0 0 0 1.8-2.05c0-.12-1.35-.25-1.35-.35-.01 1.55-1.44 2.24-2.84 2.02z"/>
    <path fill="#84BF41" d="M62.54 21.26c0 .8-.05 3.2 3.05 3.2 1.96 0 3.2-.94 3.2-2.36 0-1.5-1.05-1.75-3.2-2.26-4-1-6.2-2.2-6.2-5.11 0-2.78 1.98-5.22 6.67-5.22 1.75 0 3.82.4 5.08 1.98.96 1.21.96 2.56.96 3.12h-3.47c-.05-.58-.24-2.56-2.73-2.56-1.68 0-2.78.9-2.78 2.28 0 1.57 1.24 1.85 3.66 2.45 2.92.7 5.79 1.5 5.79 4.78 0 3.03-2.52 5.48-7.19 5.48-6.46 0-6.5-4.15-6.53-5.78h3.69M78.48 12.58h-5.01V9.79h13.67v2.79h-5.02v14.07h-3.64V12.58M96.37 20.28l-2.33-7.18-2.5 7.18h4.83zm-.09-10.5l5.85 16.87H98.5L97.28 23h-6.67l-1.26 3.64H85.9L92 9.79h4.29zM108.11 23.87c.4.02 1 .05 1.43.05 1.53 0 2.86-.12 3.91-1.17 1.43-1.42 1.52-3.94 1.52-4.76 0-2.37-.82-4.57-3.08-5.2-.75-.2-1.7-.32-3.78-.23v11.31zm-3.66-14.04l5.57.03c.94 0 3.78.02 5.81 1.51 2.12 1.56 2.87 4.22 2.87 6.62 0 5.18-2.77 7.89-5.97 8.47-.63.12-1.33.19-3.03.19h-5.25V9.83zM124.55 12.58h-5.01V9.79h13.66v2.79h-5.01v14.07h-3.64V12.58M161.41 20.28l-2.33-7.18-2.5 7.18h4.83zm-.1-10.5l5.86 16.87h-3.64l-1.2-3.64h-6.68l-1.26 3.64h-3.45l6.09-16.86h4.29zM173.17 23.87c.4.02 1 .05 1.42.05 1.54 0 2.87-.12 3.92-1.17 1.42-1.42 1.51-3.94 1.51-4.76 0-2.37-.81-4.57-3.08-5.2-.74-.2-1.7-.32-3.77-.23v11.31zM169.5 9.83l5.57.03c.93 0 3.78.02 5.8 1.51 2.13 1.56 2.87 4.22 2.87 6.62 0 5.18-2.77 7.89-5.97 8.47-.63.12-1.33.19-3.03.19h-5.24V9.83zM186.57 9.79h11.29v2.75h-7.68v4.01h7.19v2.75h-7.19v4.55h7.93v2.8h-11.54V9.79M201.62 9.81h3.68v13.97h7.23v2.87h-10.91V9.81M214.97 9.79h5.22l6.32 13.26V9.79h3.36v16.86h-4.97l-6.53-14v14h-3.4V9.79M139.3 17.67h2.82c.88 0 1.55-.22 2.04-.67.48-.44.72-1.06.72-1.84 0-.8-.23-1.42-.68-1.88-.46-.46-1.15-.69-2.09-.69h-2.8v5.08zm2.79 2.83h-2.78v6.2h-3.49V9.76h6.29c2 0 3.54.44 4.63 1.33a4.61 4.61 0 0 1 1.62 3.78 5.2 5.2 0 0 1-.75 2.9 5.1 5.1 0 0 1-2.27 1.83l3.66 6.92v.16h-3.74l-3.17-6.2z"/>
    <path fill="#286AA6" d="M67.86 38.27c0 .32.22.69.69.69a.8.8 0 0 0 .6-.28c.24-.3.26-.67.26-1.19-.9-.07-1.55.21-1.55.78zm1.73 1.48c-.05-.3-.05-.5-.05-.65-.53.77-1.17.77-1.43.77-.7 0-1-.2-1.2-.38a1.49 1.49 0 0 1-.42-1.06c0-.38.14-1.08 1.02-1.49.59-.26 1.43-.26 1.9-.26 0-.32-.01-.47-.07-.64-.12-.35-.5-.4-.62-.4-.2 0-.41.09-.54.27-.1.16-.1.31-.1.42H66.7c.01-.25.04-.77.54-1.13.44-.31 1-.39 1.46-.39.4 0 1.23.07 1.7.62.33.4.34.96.34 1.18v1.93c0 .4.04.81.12 1.21H69.6zM74.33 38.94c.4 0 .74-.25.9-.54.2-.4.22-.9.22-1.13 0-.94-.4-1.46-1.04-1.46-.94 0-1.05 1.13-1.05 1.62 0 .8.27 1.5.97 1.5zm1.07-6.04h1.42v6.07c0 .29.02.6.04.78h-1.43l-.04-.69c-.1.17-.19.35-.48.54-.35.23-.72.25-.93.25-1.28 0-2.04-.88-2.04-2.39 0-1.58.86-2.57 2.12-2.57.86 0 1.22.48 1.34.66V32.9zM81.19 36.83c0-.22-.02-1.07-.84-1.07-.61 0-.87.5-.9 1.07h1.74zm-1.79.88c0 .32 0 1.28.98 1.28.35 0 .7-.13.84-.66h1.28a1.6 1.6 0 0 1-.46 1.04c-.35.37-.97.56-1.68.56-.4 0-1.19-.07-1.69-.6-.44-.45-.62-1.1-.62-1.87s.2-1.7 1-2.27c.37-.24.83-.4 1.35-.4.68 0 1.5.27 1.94 1.16.32.66.3 1.36.28 1.76H79.4zM83.79 39.75h1.41v-6.86h-1.41zM86.69 35.81c0-.02 0-.54-.03-.87h1.35l.04.72c.13-.22.51-.84 1.55-.84.95 0 1.34.57 1.47.9.1.3.13.55.13 1.44v2.6h-1.43v-2.99c0-.2 0-.37-.08-.52a.73.73 0 0 0-.68-.4c-.3 0-.58.13-.74.36-.08.12-.17.36-.17.73v2.81H86.7v-3.94M95.37 35.95h-.7v-1h.7v-.65c0-.84.29-1.53 1.66-1.53.1 0 .36 0 .76.05v.98c-.15-.02-.18-.03-.3-.03-.72 0-.72.38-.72.63v.56h.9v1h-.9v3.8h-1.4v-3.8M101.44 34.06h.97v-1.12h-.97v1.12zm-1.64 0h.97v-1.12h-.97v1.12zm.41.9v2.86c0 .41 0 1.05.75 1.05.9 0 .9-.67.9-1.5v-2.41h1.45v3.16l.03 1.28c0 .14.02.22.03.35h-1.36l-.05-.63c-.14.2-.5.76-1.42.76-.64 0-1.17-.3-1.44-.65-.31-.39-.31-1.05-.31-1.29v-2.98h1.42zM104.72 36.13c0-.22-.04-.92-.07-1.2h1.33l.02.93c.18-.4.5-.99 1.64-.93v1.26c-1.43-.13-1.51.6-1.51 1.2v2.36h-1.4v-3.62M114.14 36.83c0-.22-.02-1.07-.84-1.07-.62 0-.87.5-.9 1.07h1.74zm-1.79.88c0 .32 0 1.28.98 1.28.35 0 .7-.13.84-.66h1.28a1.6 1.6 0 0 1-.46 1.04c-.35.37-.98.56-1.68.56-.4 0-1.19-.07-1.69-.6-.44-.45-.62-1.1-.62-1.87s.2-1.7 1-2.27c.37-.24.83-.4 1.35-.4.68 0 1.5.27 1.94 1.16.32.66.3 1.36.28 1.76h-3.22zM116.74 39.75h1.4v-4.8h-1.4v4.8zm-.05-5.63h1.5V32.9h-1.5v1.22zM119.64 35.81c0-.02 0-.54-.03-.87h1.35l.04.72c.13-.22.5-.84 1.55-.84.94 0 1.34.57 1.47.9.1.3.13.55.13 1.44v2.6h-1.44v-2.99c0-.2 0-.37-.07-.52a.73.73 0 0 0-.69-.4c-.3 0-.57.13-.73.36-.08.12-.17.36-.17.73v2.81h-1.41v-3.94M130.36 38.7c1 0 1-1.16 1-1.37 0-.54-.11-1.46-.97-1.46-.53 0-.97.4-.97 1.43 0 .24 0 1.4.94 1.4zm2.42-3.72c-.04.38-.07.7-.07 1.18v3.55c0 1.76-1.47 1.93-2.4 1.93-.68 0-2.02-.08-2.1-1.53h1.35c.02.14.08.66.83.66.42 0 .78-.2.88-.63.05-.23.05-.4.06-1.14a1.5 1.5 0 0 1-1.29.66c-1.38 0-2.02-1.2-2.02-2.36 0-1.21.67-2.37 2.05-2.37.87 0 1.2.47 1.34.68l.05-.63h1.32zM135.65 34.96v2.86c0 .41 0 1.05.75 1.05.9 0 .9-.67.9-1.5v-2.41h1.44v3.16l.03 1.28.04.35h-1.37l-.05-.63c-.14.2-.5.76-1.41.76-.65 0-1.18-.3-1.45-.65-.3-.39-.3-1.05-.3-1.29v-2.98h1.42M143.13 39.69c-.45.12-.86.15-1.1.15-1.4 0-1.4-.9-1.4-1.3v-2.62h-.93v-.93h.92v-.94l1.4-.52V35h1.14v.93h-1.14v2.16c.01.44.01.71.64.71.2 0 .3 0 .47-.02v.92M146.97 36.83c0-.22-.02-1.07-.84-1.07-.61 0-.87.5-.9 1.07h1.74zm-1.79.88c0 .32 0 1.28.98 1.28.35 0 .7-.13.84-.66h1.28a1.6 1.6 0 0 1-.46 1.04c-.35.37-.97.56-1.68.56-.4 0-1.18-.07-1.69-.6-.43-.45-.62-1.1-.62-1.87s.2-1.7 1-2.27c.37-.24.83-.4 1.35-.4.68 0 1.5.27 1.94 1.16.32.66.3 1.36.28 1.76h-3.22zM150.55 38.37c.02.3.2.65.8.65.5 0 .74-.28.74-.57 0-.22-.12-.39-.67-.54l-.87-.24c-.39-.11-1.22-.35-1.22-1.33 0-.93.86-1.5 2.1-1.5 1 0 1.79.46 1.83 1.42h-1.29c-.03-.53-.46-.57-.68-.57-.38 0-.66.18-.66.47 0 .33.23.4.65.5l.87.24c.87.24 1.28.69 1.28 1.34 0 .83-.71 1.66-2.2 1.66-.62 0-1.21-.14-1.65-.6a1.37 1.37 0 0 1-.35-.93h1.32M157.15 32.91h1.47v2.95l2.3-2.97h1.72l-2.52 3.07 2.73 3.79h-1.83l-2.4-3.49v3.49h-1.47v-6.84M163.7 39.75h1.41v-6.86h-1.41zM166.58 39.75h1.4v-4.8h-1.4v4.8zm-.05-5.63h1.5V32.9h-1.5v1.22zM169.49 35.86c0-.3-.02-.6-.05-.9h1.36l.04.61c.16-.2.53-.72 1.49-.72 1.1 0 1.41.68 1.5.9.4-.76 1.05-.89 1.54-.89.97 0 1.36.58 1.47.77.25.42.23 1 .23 1.42v2.7h-1.41v-2.82c0-.51-.08-1.08-.8-1.08-.85 0-.87.79-.87 1.5v2.4h-1.42V36.9c0-.37 0-1.05-.79-1.05-.88 0-.88.76-.88 1.08v2.82h-1.41v-3.89M179.5 38.27c0 .32.22.69.68.69a.8.8 0 0 0 .6-.28c.25-.3.27-.67.27-1.19-.9-.07-1.55.21-1.55.78zm1.73 1.48c-.05-.3-.05-.5-.05-.65-.53.77-1.17.77-1.43.77-.7 0-1.01-.2-1.2-.38a1.49 1.49 0 0 1-.42-1.06c0-.38.13-1.08 1.02-1.49.59-.26 1.43-.26 1.9-.26 0-.32-.01-.47-.07-.64-.12-.35-.5-.4-.63-.4-.2 0-.4.09-.53.27-.1.16-.1.31-.1.42h-1.38c.01-.25.04-.77.54-1.13.44-.31 1-.39 1.46-.39.4 0 1.23.07 1.7.62.33.4.34.96.34 1.18v1.93c0 .4.04.81.12 1.21h-1.27zM61.61 36.11h1.13c.35 0 .62-.08.82-.26.19-.18.28-.43.28-.74 0-.32-.09-.57-.27-.76-.18-.18-.46-.27-.84-.27h-1.12v2.03zm1.11 1.14h-1.11v2.48h-1.4v-6.79h2.52c.8 0 1.43.18 1.86.54.44.36.65.86.65 1.52 0 .46-.1.84-.3 1.15-.2.31-.5.56-.9.74l1.46 2.78v.06H64l-1.28-2.48z"/>
  </g>
</svg>
